{
	"asset":{
		"generator":"Khronos glTF Blender I/O v4.2.57",
		"version":"2.0"
	},
	"scene":0,
	"scenes":[
		{
			"name":"Scene",
			"nodes":[
				0,
				1,
				2
			]
		}
	],
	"nodes":[
		{
			"mesh":0,
			"name":"Mball.028"
		},
		{
			"mesh":1,
			"name":"Mball.001",
			"translation":[
				0.579560399055481,
				-0.21783076226711273,
				3.191936492919922
			]
		},
		{
			"mesh":2,
			"name":"Mball.002",
			"translation":[
				-0.4207877516746521,
				-0.3180719017982483,
				-3.093332529067993
			]
		}
	],
	"materials":[
		{
			"alphaMode":"BLEND",
			"doubleSided":true,
			"name":"Material.001",
			"pbrMetallicRoughness":{
				"baseColorFactor":[
					0.7582405805587769,
					0.8000074625015259,
					0.016857944428920746,
					0.20000000298023224
				],
				"metallicFactor":0,
				"roughnessFactor":0.5
			}
		},
		{
			"alphaMode":"BLEND",
			"doubleSided":true,
			"name":"Material.002",
			"pbrMetallicRoughness":{
				"baseColorFactor":[
					0.7582405805587769,
					0.8000074625015259,
					0.016857944428920746,
					0.20000000298023224
				],
				"metallicFactor":0,
				"roughnessFactor":0.5
			}
		},
		{
			"alphaMode":"BLEND",
			"doubleSided":true,
			"name":"Material.003",
			"pbrMetallicRoughness":{
				"baseColorFactor":[
					0.7582405805587769,
					0.8000074625015259,
					0.016857944428920746,
					0.20000000298023224
				],
				"metallicFactor":0,
				"roughnessFactor":0.5
			}
		}
	],
	"meshes":[
		{
			"name":"Mesh",
			"primitives":[
				{
					"attributes":{
						"POSITION":0,
						"NORMAL":1
					},
					"indices":2,
					"material":0
				}
			]
		},
		{
			"name":"Mesh.001",
			"primitives":[
				{
					"attributes":{
						"POSITION":3,
						"NORMAL":4
					},
					"indices":2,
					"material":1
				}
			]
		},
		{
			"name":"Mesh.002",
			"primitives":[
				{
					"attributes":{
						"POSITION":5,
						"NORMAL":6
					},
					"indices":2,
					"material":2
				}
			]
		}
	],
	"accessors":[
		{
			"bufferView":0,
			"componentType":5126,
			"count":312962,
			"max":[
				2.390854835510254,
				3.020437240600586,
				4.381062030792236
			],
			"min":[
				-3.0144715309143066,
				-2.4666709899902344,
				-4.425756454467773
			],
			"type":"VEC3"
		},
		{
			"bufferView":1,
			"componentType":5126,
			"count":312962,
			"type":"VEC3"
		},
		{
			"bufferView":2,
			"componentType":5125,
			"count":1877760,
			"type":"SCALAR"
		},
		{
			"bufferView":3,
			"componentType":5126,
			"count":312962,
			"max":[
				2.390854835510254,
				3.020437240600586,
				4.381062030792236
			],
			"min":[
				-3.0144715309143066,
				-2.4666709899902344,
				-4.425756454467773
			],
			"type":"VEC3"
		},
		{
			"bufferView":4,
			"componentType":5126,
			"count":312962,
			"type":"VEC3"
		},
		{
			"bufferView":5,
			"componentType":5126,
			"count":312962,
			"max":[
				2.390854835510254,
				3.020437240600586,
				4.381062030792236
			],
			"min":[
				-3.0144715309143066,
				-2.4666709899902344,
				-4.425756454467773
			],
			"type":"VEC3"
		},
		{
			"bufferView":6,
			"componentType":5126,
			"count":312962,
			"type":"VEC3"
		}
	],
	"bufferViews":[
		{
			"buffer":0,
			"byteLength":3755544,
			"byteOffset":0,
			"target":34962
		},
		{
			"buffer":0,
			"byteLength":3755544,
			"byteOffset":3755544,
			"target":34962
		},
		{
			"buffer":0,
			"byteLength":7511040,
			"byteOffset":7511088,
			"target":34963
		},
		{
			"buffer":0,
			"byteLength":3755544,
			"byteOffset":15022128,
			"target":34962
		},
		{
			"buffer":0,
			"byteLength":3755544,
			"byteOffset":18777672,
			"target":34962
		},
		{
			"buffer":0,
			"byteLength":3755544,
			"byteOffset":22533216,
			"target":34962
		},
		{
			"buffer":0,
			"byteLength":3755544,
			"byteOffset":26288760,
			"target":34962
		}
	],
	"buffers":[
		{
			"byteLength":30044304,
			"uri":"try.bin"
		}
	]
}
