<svg xmlns="http://www.w3.org/2000/svg" version="1.1" xmlns:xlink="http://www.w3.org/1999/xlink" xmlns:svgjs="http://svgjs.dev/svgjs" width="2000" height="1500" viewBox="0 0 2000 1500"><rect width="2000" height="1500" fill="#102e44"></rect><g transform="matrix(0.75,0,0,0.75,249.090909090909,344.2701442139984)"><svg viewBox="0 0 396 214" data-background-color="#102e44" preserveAspectRatio="xMidYMid meet" height="1080" width="2000" xmlns="http://www.w3.org/2000/svg" xmlns:xlink="http://www.w3.org/1999/xlink"><g id="tight-bounds" transform="matrix(1,0,0,1,0.2400000000000091,0.19282609654857197)"><svg viewBox="0 0 395.52 213.61434780690286" height="213.61434780690286" width="395.52"><g><svg viewBox="0 0 395.52 213.61434780690286" height="213.61434780690286" width="395.52"><g transform="matrix(1,0,0,1,0,132.0222367272769)"><svg viewBox="0 0 395.52 81.59211107962597" height="81.59211107962597" width="395.52"><g id="textblocktransform"><svg viewBox="0 0 395.52 81.59211107962597" height="81.59211107962597" width="395.52" id="textblock"><g><svg viewBox="0 0 395.52 81.59211107962597" height="81.59211107962597" width="395.52"><g transform="matrix(1,0,0,1,0,0)"><svg width="395.52" viewBox="4 -35.7 176.44 36.400000000000006" height="81.59211107962597" data-palette-color="#ffffff"><path d="M34.1-4.3L34.4-4.3 34.1-1.25Q32.7-0.65 30.7-0.2 28.7 0.25 26.65 0.48 24.6 0.7 23 0.7L23 0.7Q18.95 0.7 15.5-0.68 12.05-2.05 9.47-4.5 6.9-6.95 5.45-10.28 4-13.6 4-17.5L4-17.5Q4-21.4 5.45-24.73 6.9-28.05 9.47-30.5 12.05-32.95 15.5-34.33 18.95-35.7 23-35.7L23-35.7Q24.65-35.7 26.7-35.45 28.75-35.2 30.7-34.77 32.65-34.35 34-33.8L34-33.8 33.75-31 33.45-31Q31.6-32.7 28.8-33.6 26-34.5 23-34.5L23-34.5Q18.5-34.5 15.08-32.38 11.65-30.25 9.73-26.43 7.8-22.6 7.8-17.5L7.8-17.5Q7.8-12.35 9.73-8.55 11.65-4.75 15.05-2.63 18.45-0.5 23-0.5L23-0.5Q26.4-0.5 29.33-1.6 32.25-2.7 34.1-4.3L34.1-4.3ZM44.4 0L44.4-35 47.8-35 47.8-1Q48.75-1 50.8-1.3L50.8-1.3 59.1-2.55 59.1 0 44.4 0ZM63.45-17.5L63.45-17.5Q63.45-21.35 64.82-24.68 66.2-28 68.67-30.48 71.15-32.95 74.47-34.33 77.8-35.7 81.65-35.7L81.65-35.7Q85.5-35.7 88.82-34.33 92.15-32.95 94.62-30.48 97.09-28 98.47-24.68 99.85-21.35 99.85-17.5L99.85-17.5Q99.85-13.65 98.47-10.33 97.09-7 94.62-4.53 92.15-2.05 88.82-0.68 85.5 0.7 81.65 0.7L81.65 0.7Q77.8 0.7 74.47-0.68 71.15-2.05 68.67-4.53 66.2-7 64.82-10.33 63.45-13.65 63.45-17.5ZM67.25-17.5L67.25-17.5Q67.25-12.4 69.05-8.58 70.85-4.75 74.1-2.63 77.35-0.5 81.65-0.5L81.65-0.5Q85.95-0.5 89.2-2.63 92.45-4.75 94.25-8.6 96.05-12.45 96.05-17.5L96.05-17.5Q96.05-22.55 94.25-26.38 92.45-30.2 89.2-32.35 85.95-34.5 81.65-34.5L81.65-34.5Q77.35-34.5 74.12-32.38 70.9-30.25 69.07-26.43 67.25-22.6 67.25-17.5ZM109.84-14L109.84-35 113.24-35 113.24-13.9Q113.24-7.85 116.22-4.48 119.19-1.1 124.59-1.1L124.59-1.1Q127.99-1.1 130.52-2.43 133.04-3.75 134.42-6.1 135.79-8.45 135.69-11.5L135.69-11.5 134.84-35 138.24-35 137.39-11.5Q137.19-5.5 133.82-2.4 130.44 0.7 124.19 0.7L124.19 0.7Q117.44 0.7 113.64-3.23 109.84-7.15 109.84-14L109.84-14ZM161.24 0L150.24 0 150.24-35 161.24-35Q167.04-35 171.34-32.8 175.64-30.6 178.04-26.68 180.44-22.75 180.44-17.5L180.44-17.5Q180.44-12.25 178.04-8.33 175.64-4.4 171.34-2.2 167.04 0 161.24 0L161.24 0ZM161.24-33.8L161.24-33.8 153.64-33.8 153.64-1.2 161.24-1.2Q168.49-1.2 172.56-5.5 176.64-9.8 176.64-17.5L176.64-17.5Q176.64-25.2 172.56-29.5 168.49-33.8 161.24-33.8Z" opacity="1" transform="matrix(1,0,0,1,0,0)" fill="#ffffff" class="wordmark-text-0" data-fill-palette-color="primary" id="text-0"></path></svg></g></svg></g></svg></g></svg></g><g transform="matrix(1,0,0,1,95.35524001457313,0)"><svg viewBox="0 0 204.80951997085373 112.7602975120431" height="112.7602975120431" width="204.80951997085373"><g><svg xmlns="http://www.w3.org/2000/svg" xmlns:xlink="http://www.w3.org/1999/xlink" version="1.1" x="0" y="0" viewBox="1.39 20.99 87.22 48.02000000000001" enable-background="new 0 0 90 90" xml:space="preserve" height="112.7602975120431" width="204.80951997085373" class="icon-icon-0" data-fill-palette-color="accent" id="icon-0"><rect x="1.39" y="45.49" width="23.52" height="23.52" fill="#b2fcfb" data-fill-palette-color="accent"></rect><polygon points="43.294,33.24 25.263,44.51 2.604,44.51 20.638,33.24 " fill="#b2fcfb" data-fill-palette-color="accent"></polygon><polygon points="64.108,44.727 25.89,68.617 25.89,45.273 64.108,21.382 " fill="#b2fcfb" data-fill-palette-color="accent"></polygon><polygon points="64.728,45.49 87.394,45.49 69.36,56.76 46.704,56.76 " fill="#b2fcfb" data-fill-palette-color="accent"></polygon><rect x="65.089" y="20.99" width="23.521" height="23.52" fill="#b2fcfb" data-fill-palette-color="accent"></rect></svg></g></svg></g><g></g></svg></g><defs></defs></svg><rect width="395.52" height="213.61434780690286" fill="none" stroke="none" visibility="hidden"></rect></g></svg></g></svg>